<?xml version="1.0" encoding="UTF-8"?>
<svg xmlns="http://www.w3.org/2000/svg" viewBox="0 0 320 560" width="320" height="560">
  <rect x="10" y="8" width="300" height="544" rx="28" fill="#fff" stroke="#e8e6e0" stroke-width="2"/>
  <rect x="20" y="18" width="280" height="52" rx="8" fill="#1b2d4f"/>
  <circle cx="44" cy="44" r="14" fill="#fff"/>
  <text x="68" y="48" fill="#fff" font-family="system-ui,sans-serif" font-size="14" font-weight="700">まぐろ丸</text>
  <rect x="24" y="82" width="272" height="28" rx="6" fill="#2a4470"/>
  <text x="160" y="101" fill="#fff" font-family="system-ui,sans-serif" font-size="11" font-weight="700" text-anchor="middle">来店を記録</text>
  <text x="28" y="134" fill="#2c2c2c" font-family="system-ui,sans-serif" font-size="10" font-weight="700">メニュー</text>
  <rect x="24" y="140" width="130" height="40" rx="8" fill="#e3f2fd" stroke="#2a4470"/>
  <text x="89" y="165" fill="#1b2d4f" font-family="system-ui,sans-serif" font-size="10" font-weight="700" text-anchor="middle">赤身</text>
  <rect x="162" y="140" width="134" height="40" rx="8" fill="#f7f7f4" stroke="#e8e6e0"/>
  <text x="229" y="165" fill="#9a9a9a" font-family="system-ui,sans-serif" font-size="9" text-anchor="middle">他</text>
  <text x="28" y="202" fill="#2c2c2c" font-family="system-ui,sans-serif" font-size="10" font-weight="700">部位</text>
  <rect x="24" y="208" width="272" height="72" rx="8" fill="#fafafa" stroke="#eee"/>
  <rect x="36" y="220" width="48" height="22" rx="6" fill="#ffebee" stroke="#c23b3b"/>
  <text x="60" y="235" fill="#c23b3b" font-family="system-ui,sans-serif" font-size="8" font-weight="600" text-anchor="middle">腹</text>
  <rect x="92" y="220" width="48" height="22" rx="6" fill="#ffebee" stroke="#c23b3b"/>
  <text x="116" y="235" fill="#c23b3b" font-family="system-ui,sans-serif" font-size="8" font-weight="600" text-anchor="middle">背</text>
  <rect x="148" y="220" width="40" height="22" rx="6" fill="#f5f5f5" stroke="#ddd"/>
  <text x="168" y="235" fill="#9a9a9a" font-family="system-ui,sans-serif" font-size="8" text-anchor="middle">他</text>
  <text x="28" y="298" fill="#2c2c2c" font-family="system-ui,sans-serif" font-size="10" font-weight="700">写真</text>
  <rect x="24" y="304" width="272" height="56" rx="8" fill="#f0f0f0" stroke="#ddd" stroke-dasharray="4 3"/>
  <text x="160" y="336" fill="#9a9a9a" font-family="system-ui,sans-serif" font-size="9" text-anchor="middle">タップで追加</text>
  <rect x="24" y="372" width="272" height="36" rx="10" fill="#c23b3b"/>
  <text x="160" y="395" fill="#fff" font-family="system-ui,sans-serif" font-size="12" font-weight="700" text-anchor="middle">保存</text>
  <rect x="20" y="472" width="280" height="72" fill="rgba(27,45,79,0.97)"/>
  <g font-family="system-ui,sans-serif" font-size="8" text-anchor="middle">
    <text x="47" y="518" fill="rgba(255,255,255,0.45)">ホ</text><text x="47" y="532" fill="rgba(255,255,255,0.45)">ーム</text>
    <text x="93" y="518" fill="#a8f0fc">記</text><text x="93" y="532" fill="#a8f0fc">録</text>
    <text x="139" y="518" fill="rgba(255,255,255,0.45)">図</text><text x="139" y="532" fill="rgba(255,255,255,0.45)">鑑</text>
    <text x="185" y="518" fill="rgba(255,255,255,0.45)">ク</text><text x="185" y="532" fill="rgba(255,255,255,0.45)">イズ</text>
    <text x="231" y="518" fill="rgba(255,255,255,0.45)">称</text><text x="231" y="532" fill="rgba(255,255,255,0.45)">号</text>
    <text x="277" y="518" fill="rgba(255,255,255,0.45)">連</text><text x="277" y="532" fill="rgba(255,255,255,0.45)">携</text>
  </g>
</svg>
