<?xml version="1.0" encoding="UTF-8"?>
<svg xmlns="http://www.w3.org/2000/svg" viewBox="0 0 320 560" width="320" height="560">
  <rect x="10" y="8" width="300" height="544" rx="28" fill="#fff" stroke="#e8e6e0" stroke-width="2"/>
  <rect x="20" y="18" width="280" height="52" rx="8" fill="#1b2d4f"/>
  <circle cx="44" cy="44" r="14" fill="#fff"/>
  <text x="68" y="48" fill="#fff" font-family="system-ui,sans-serif" font-size="14" font-weight="700">まぐろ丸</text>
  <rect x="24" y="82" width="272" height="28" rx="6" fill="#2a4470"/>
  <text x="160" y="101" fill="#fff" font-family="system-ui,sans-serif" font-size="11" font-weight="700" text-anchor="middle">図鑑</text>
  <rect x="24" y="118" width="272" height="100" rx="12" fill="#fff8f0" stroke="#ffb2b2" stroke-width="2"/>
  <text x="160" y="148" fill="#9a9a9a" font-family="system-ui,sans-serif" font-size="9" text-anchor="middle">コレクション</text>
  <text x="160" y="182" fill="#c23b3b" font-family="system-ui,sans-serif" font-size="28" font-weight="800" text-anchor="middle">42%</text>
  <rect x="44" y="194" width="232" height="8" rx="4" fill="#eee"/>
  <rect x="44" y="194" width="98" height="8" rx="4" fill="#e85555"/>
  <text x="160" y="212" fill="#5a5a5a" font-family="system-ui,sans-serif" font-size="9" text-anchor="middle">4 / 9 部位</text>
  <rect x="24" y="228" width="272" height="220" rx="10" fill="#f7f7f4" stroke="#e8e6e0"/>
  <ellipse cx="160" cy="320" rx="72" ry="48" fill="#e3f2fd" stroke="#90caf9" stroke-width="2"/>
  <path d="M120 300 Q160 280 200 300 Q200 340 160 355 Q120 340 120 300" fill="none" stroke="#1976d2" stroke-width="2"/>
  <text x="160" y="395" fill="#9a9a9a" font-family="system-ui,sans-serif" font-size="9" text-anchor="middle">マグロの部位</text>
  <text x="160" y="412" fill="#c23b3b" font-family="system-ui,sans-serif" font-size="9" font-weight="600" text-anchor="middle">次の解放条件</text>
  <rect x="20" y="472" width="280" height="72" fill="rgba(27,45,79,0.97)"/>
  <g font-family="system-ui,sans-serif" font-size="8" text-anchor="middle">
    <text x="47" y="518" fill="rgba(255,255,255,0.45)">ホ</text><text x="47" y="532" fill="rgba(255,255,255,0.45)">ーム</text>
    <text x="93" y="518" fill="rgba(255,255,255,0.45)">記</text><text x="93" y="532" fill="rgba(255,255,255,0.45)">録</text>
    <text x="139" y="518" fill="#a8f0fc">図</text><text x="139" y="532" fill="#a8f0fc">鑑</text>
    <text x="185" y="518" fill="rgba(255,255,255,0.45)">ク</text><text x="185" y="532" fill="rgba(255,255,255,0.45)">イズ</text>
    <text x="231" y="518" fill="rgba(255,255,255,0.45)">称</text><text x="231" y="532" fill="rgba(255,255,255,0.45)">号</text>
    <text x="277" y="518" fill="rgba(255,255,255,0.45)">連</text><text x="277" y="532" fill="rgba(255,255,255,0.45)">携</text>
  </g>
</svg>
