<svg xmlns="http://www.w3.org/2000/svg" viewBox="0 0 320 560" width="320" height="560">
  <rect x="10" y="8" width="300" height="544" rx="28" fill="#fff" stroke="#e8e6e0" stroke-width="2"/>
  <rect x="20" y="18" width="280" height="52" rx="8" fill="#1b2d4f"/>
  <circle cx="44" cy="44" r="14" fill="#fff"/>
  <text x="68" y="48" fill="#fff" font-family="system-ui,sans-serif" font-size="14" font-weight="700">~Pć8őŁ»</text>
  <rect x="24" y="82" width="272" height="28" rx="6" fill="#2a4470"/>
  <text x="160" y="101" fill="#fff" font-family="system-ui,sans-serif" font-size="11" font-weight="700" text-anchor="middle">~PćĮ§ļ</text>
  <text x="28" y="130" fill="#9a9a9a" font-family="system-ui,sans-serif" font-size="9">Ļ∆Łłíxďg10OŃ„žůł</text>
  <rect x="24" y="142" width="272" height="64" rx="10" fill="#f7f7f4" stroke="#e8e6e0"/>
  <text x="40" y="168" fill="#2c2c2c" font-family="system-ui,sans-serif" font-size="11" font-weight="700">Ļ∆Łł 1</text>
  <text x="40" y="186" fill="#9a9a9a" font-family="system-ui,sans-serif" font-size="9">eÄ ∑ „ </text>
  <rect x="200" y="158" width="88" height="32" rx="8" fill="#2a4470"/>
  <text x="244" y="178" fill="#fff" font-family="system-ui,sans-serif" font-size="10" font-weight="700" text-anchor="middle">&</text>
  <rect x="24" y="216" width="272" height="64" rx="10" fill="#fafafa" stroke="#eee"/>
  <text x="40" y="242" fill="#9a9a9a" font-family="system-ui,sans-serif" font-size="11" font-weight="700">Ļ∆Łł 2</text>
  <text x="40" y="260" fill="#9a9a9a" font-family="system-ui,sans-serif" font-size="9">Ļ∆Łł1ĮÍĘg„></text>
  <rect x="24" y="292" width="272" height="100" rx="10" fill="#fff8f0" stroke="#ffb2b2"/>
  <text x="36" y="318" fill="#2c2c2c" font-family="system-ui,sans-serif" font-size="10" font-weight="700">OL§ŠŁł</text>
  <text x="36" y="338" fill="#5a5a5a" font-family="system-ui,sans-serif" font-size="9">-hćo;křįŪninŤM</text>
  <rect x="36" y="348" width="110" height="28" rx="6" fill="#fff" stroke="#ddd"/>
  <text x="91" y="366" fill="#2c2c2c" font-family="system-ui,sans-serif" font-size="8" text-anchor="middle">A. ŐŤ</text>
  <rect x="154" y="348" width="110" height="28" rx="6" fill="#e8f5e9" stroke="#4caf50"/>
  <text x="209" y="366" fill="#2e7d32" font-family="system-ui,sans-serif" font-size="8" font-weight="600" text-anchor="middle">B. yŤ</text>
  <rect x="20" y="472" width="280" height="72" fill="rgba(27,45,79,0.97)"/>
  <g font-family="system-ui,sans-serif" font-size="8" text-anchor="middle">
    <text x="47" y="518" fill="rgba(255,255,255,0.45)"><ŗ</text><text x="47" y="532" fill="rgba(255,255,255,0.45)">ŘŁŗ</text>
    <text x="93" y="518" fill="rgba(255,255,255,0.45)"></text><text x="93" y="532" fill="rgba(255,255,255,0.45)">2</text>
    <text x="139" y="518" fill="rgba(255,255,255,0.45)">=÷</text><text x="139" y="532" fill="rgba(255,255,255,0.45)">ůQ</text>
    <text x="185" y="518" fill="#a8f0fc">=</text><text x="185" y="532" fill="#a8f0fc">Į§ļ</text>
    <text x="231" y="518" fill="rgba(255,255,255,0.45)"><Ň</text><text x="231" y="532" fill="rgba(255,255,255,0.45)">ūų</text>
    <text x="277" y="518" fill="rgba(255,255,255,0.45)">=d</text><text x="277" y="532" fill="rgba(255,255,255,0.45)">#:</text>
  </g>
</svg>
