<?xml version="1.0" encoding="UTF-8"?>
<svg xmlns="http://www.w3.org/2000/svg" viewBox="0 0 320 560" width="320" height="560">
  <rect x="10" y="8" width="300" height="544" rx="28" fill="#fff" stroke="#e8e6e0" stroke-width="2"/>
  <rect x="20" y="18" width="280" height="52" rx="8" fill="#1b2d4f"/>
  <circle cx="44" cy="44" r="14" fill="#fff"/>
  <text x="68" y="48" fill="#fff" font-family="system-ui,sans-serif" font-size="14" font-weight="700">まぐろ丸</text>
  <rect x="24" y="82" width="272" height="28" rx="6" fill="#2a4470"/>
  <text x="160" y="101" fill="#fff" font-family="system-ui,sans-serif" font-size="11" font-weight="700" text-anchor="middle">アカウント連携</text>
  <rect x="24" y="118" width="272" height="200" rx="12" fill="#f7f7f4" stroke="#e8e6e0"/>
  <text x="36" y="142" fill="#2c2c2c" font-family="system-ui,sans-serif" font-size="12" font-weight="800">ログイン方法</text>
  <text x="36" y="158" fill="#9a9a9a" font-family="system-ui,sans-serif" font-size="8">いずれかで連携できます</text>
  <line x1="36" y1="168" x2="284" y2="168" stroke="#e8e6e0"/>
  <text x="52" y="192" font-size="14">&#9675;</text>
  <text x="80" y="194" fill="#2c2c2c" font-family="system-ui,sans-serif" font-size="11" font-weight="600">Apple</text>
  <text x="250" y="194" fill="#9a9a9a" font-family="system-ui,sans-serif" font-size="9" text-anchor="end">連携</text>
  <text x="52" y="224" font-size="14">&#9675;</text>
  <text x="80" y="226" fill="#2c2c2c" font-family="system-ui,sans-serif" font-size="11" font-weight="600">Google</text>
  <text x="250" y="226" fill="#9a9a9a" font-family="system-ui,sans-serif" font-size="9" text-anchor="end">連携</text>
  <text x="52" y="256" font-size="12">M</text>
  <text x="80" y="258" fill="#2c2c2c" font-family="system-ui,sans-serif" font-size="11" font-weight="600">メール</text>
  <text x="250" y="258" fill="#9a9a9a" font-family="system-ui,sans-serif" font-size="9" text-anchor="end">連携</text>
  <text x="36" y="290" fill="#9a9a9a" font-family="system-ui,sans-serif" font-size="8">機種変更時もデータを引き継げます</text>
  <rect x="24" y="332" width="272" height="44" rx="10" fill="#fafafa" stroke="#eee"/>
  <text x="160" y="358" fill="#9a9a9a" font-family="system-ui,sans-serif" font-size="9" text-anchor="middle">匿名利用からの移行</text>
  <rect x="20" y="472" width="280" height="72" fill="rgba(27,45,79,0.97)"/>
  <g font-family="system-ui,sans-serif" font-size="8" text-anchor="middle">
    <text x="47" y="518" fill="rgba(255,255,255,0.45)">ホ</text><text x="47" y="532" fill="rgba(255,255,255,0.45)">ーム</text>
    <text x="93" y="518" fill="rgba(255,255,255,0.45)">記</text><text x="93" y="532" fill="rgba(255,255,255,0.45)">録</text>
    <text x="139" y="518" fill="rgba(255,255,255,0.45)">図</text><text x="139" y="532" fill="rgba(255,255,255,0.45)">鑑</text>
    <text x="185" y="518" fill="rgba(255,255,255,0.45)">ク</text><text x="185" y="532" fill="rgba(255,255,255,0.45)">イズ</text>
    <text x="231" y="518" fill="rgba(255,255,255,0.45)">称</text><text x="231" y="532" fill="rgba(255,255,255,0.45)">号</text>
    <text x="277" y="518" fill="#a8f0fc">連</text><text x="277" y="532" fill="#a8f0fc">携</text>
  </g>
</svg>
